<svg xmlns="http://www.w3.org/2000/svg" width="14.079" height="10.501" viewBox="0 0 14.079 10.501"><path d="M23,7.4c.059-.3.143-.726,0-.9a5.616,5.616,0,0,0-.84-.027H14.317a1.827,1.827,0,0,1-1.8-1.484c0-.017-.008-.034-.013-.052h.461a1.5,1.5,0,0,0,1.5-1.495v-.4a.29.29,0,0,0-.291-.29H13.3a1.909,1.909,0,0,0-1.569.834,1.9,1.9,0,0,0-1.568-.835H9.294A.29.29,0,0,0,9,3.042v.4A1.5,1.5,0,0,0,10.5,4.937h.509a.8.8,0,0,0-.025.2v1.63a4.954,4.954,0,0,0,4.154,4.892,2.02,2.02,0,0,0,.057,1.423.291.291,0,0,0,.158.156.348.348,0,0,0,.221,0l2.641-1.113a.894.894,0,0,0,.46-.436,4.962,4.962,0,0,0,4.3-4.109.011.011,0,0,0,0-.008c.007-.048.018-.105.03-.168ZM21.88,4.685a.29.29,0,1,1-.58,0,.544.544,0,0,0-1.087,0v1a.29.29,0,1,1-.581,0V4.647h0a.543.543,0,0,0-1.086.038.29.29,0,1,1-.58,0,1.125,1.125,0,0,1,1.957-.753,1.126,1.126,0,0,1,1.96.753Z" transform="translate(-9.004 -2.751)" fill="#fff" fill-rule="evenodd"/></svg>