<svg xmlns="http://www.w3.org/2000/svg" viewBox="0 0 392.5 101.06"><path d="M128.14,245.08v22a18,18,0,1,1-18,18v-18h-22v18a40,40,0,1,0,40-40Z" transform="translate(-88.14 -224.02)" fill="#414755"/><path d="M369,245.83a52.63,52.63,0,0,1-8.6,16.1,46.33,46.33,0,0,0,15.2,7.7,42.81,42.81,0,0,0-7.6,9.9,52.22,52.22,0,0,1-16-9.5,58.62,58.62,0,0,1-15.5,8.3,47.21,47.21,0,0,0-5.9-9.8v7.3h-10.2v-7.2l-5.41,1.7a84.94,84.94,0,0,0-2.89-15.7v22.7h-8.71v-23.6a76.27,76.27,0,0,1-4,16.6c-.9-.6-2.6-1.5-4.1-2.3v10.2h-10.1v-37.1h4.1a59.21,59.21,0,0,0-4.5-9.11l9.9-4.2a46.53,46.53,0,0,1,5.7,10.61l-6,2.7h7.1V226H314v15.11h7l-4.6-1.9a74.83,74.83,0,0,0,4.7-11.51l11.7,3.91c-2.7,3.5-5,6.9-6.9,9.5h4.7v3.1A41.11,41.11,0,0,0,340.94,226l11.9,2.5a52.24,52.24,0,0,1-2.3,6.61h23.1v10.7Zm-3.5,57.8c0,6.1-1.4,9.4-5.9,11.2s-10.1,1.9-17.2,1.9a50.87,50.87,0,0,0-4.7-11.9c4,.2,10,.2,11.4.2s2.1-.4,2.1-1.6v-8.8h-16.9v26.3h-14.4v-26.3H305.13v21.9H291v-33.9h28.91v-4.9h14.4v4.9h31.2Zm-62.11-50.7v-3.6h-8.1v11.9c.7-3.1,1.1-6.5,1.5-9.7Zm13.91-1.7a91.91,91.91,0,0,1,3.1,12.7v-14.6h-8.3v3.5Zm13.3,16.1a46.94,46.94,0,0,0,13.3-6.4,67.82,67.82,0,0,1-4.8-7.8,30.84,30.84,0,0,1-3.3,3c-1.1-1.4-3.2-3.8-5.2-5.9Zm16.7-21.5a50.34,50.34,0,0,0,4.5,7.4,31,31,0,0,0,4-7.4Z" transform="translate(-88.14 -224.02)" fill="#414755"/><path d="M474,245.83a52.63,52.63,0,0,1-8.6,16.1,46.33,46.33,0,0,0,15.2,7.7,42.81,42.81,0,0,0-7.6,9.9,52.22,52.22,0,0,1-16-9.5,58.62,58.62,0,0,1-15.5,8.3,47.21,47.21,0,0,0-5.9-9.8v7.3h-10.2v-7.2l-5.41,1.7a84.94,84.94,0,0,0-2.89-15.7v22.7h-8.71v-23.6a76.27,76.27,0,0,1-4,16.6c-.9-.6-2.6-1.5-4.1-2.3v10.2h-10.1v-37.1h4.1a59.21,59.21,0,0,0-4.5-9.11l9.9-4.2a46.53,46.53,0,0,1,5.7,10.61l-6,2.7h7.1V226H419v15.11h7l-4.6-1.9a74.83,74.83,0,0,0,4.7-11.51l11.7,3.91c-2.7,3.5-5,6.9-6.9,9.5h4.7v3.1A41.11,41.11,0,0,0,445.94,226l11.9,2.5a52.24,52.24,0,0,1-2.3,6.61h23.1v10.7Zm-3.5,57.8c0,6.1-1.4,9.4-5.9,11.2s-10.1,1.9-17.2,1.9a50.87,50.87,0,0,0-4.7-11.9c4,.2,10,.2,11.4.2s2.1-.4,2.1-1.6v-8.8h-16.9v26.3h-14.4v-26.3H410.13v21.9H396v-33.9h28.91v-4.9h14.4v4.9h31.2Zm-62.11-50.7v-3.6h-8.1v11.9c.7-3.1,1.1-6.5,1.5-9.7Zm13.91-1.7a91.91,91.91,0,0,1,3.1,12.7v-14.6h-8.3v3.5Zm13.3,16.1a46.94,46.94,0,0,0,13.3-6.4,67.82,67.82,0,0,1-4.8-7.8,30.84,30.84,0,0,1-3.3,3c-1.1-1.4-3.2-3.8-5.2-5.9Zm16.7-21.5a50.34,50.34,0,0,0,4.5,7.4,31,31,0,0,0,4-7.4Z" transform="translate(-88.14 -224.02)" fill="#414755"/><rect width="22" height="24.06" fill="#414755"/><path d="M218.6,245.08v22a18,18,0,1,1-18,18v-18h-22v18a40,40,0,1,0,40-40Z" transform="translate(-88.14 -224.02)" fill="#414755"/><rect x="90.45" width="22" height="24.06" fill="#414755"/></svg>