<svg xmlns="http://www.w3.org/2000/svg" width="392.707" height="130.001" viewBox="0 0 392.707 130.001">
  <g id="logo" transform="translate(29.5 11.522)">
    <path id="Path_2" data-name="Path 2" d="M375.249,247.3A56.536,56.536,0,0,1,366.01,264.6a49.767,49.767,0,0,0,16.328,8.271,45.988,45.988,0,0,0-8.164,10.635,56.094,56.094,0,0,1-17.187-10.2,62.969,62.969,0,0,1-16.65,8.916A50.715,50.715,0,0,0,334,271.686v7.842H323.042v-7.734l-5.811,1.826a91.239,91.239,0,0,0-3.1-16.865v24.384H304.77V255.788a81.932,81.932,0,0,1-4.3,17.832c-.967-.645-2.793-1.611-4.4-2.471v10.957H285.22V242.253h4.4a63.6,63.6,0,0,0-4.834-9.786l10.635-4.512a49.983,49.983,0,0,1,6.123,11.4l-6.445,2.9h7.627V226h13.438v16.231h7.519l-4.941-2.041a80.388,80.388,0,0,0,5.049-12.364l12.568,4.2c-2.9,3.76-5.371,7.412-7.412,10.2H334v3.33A44.161,44.161,0,0,0,345.106,226l12.783,2.686a56.121,56.121,0,0,1-2.471,7.1h24.814V247.28Zm-3.76,62.089c0,6.553-1.5,10.1-6.338,12.031s-10.849,2.041-18.476,2.041a54.643,54.643,0,0,0-5.049-12.783c4.3.215,10.742.215,12.246.215s2.256-.43,2.256-1.719v-9.453H337.974v28.252H322.505V299.723H306.639v23.525H291.461V286.832h31.055v-5.264h15.469v5.264H371.5ZM304.77,254.928v-3.867h-8.7v12.783c.752-3.33,1.182-6.982,1.611-10.42Zm14.942-1.826a98.724,98.724,0,0,1,3.33,13.642V251.061h-8.916v3.76ZM334,270.4a50.422,50.422,0,0,0,14.287-6.875,72.855,72.855,0,0,1-5.156-8.379,33.129,33.129,0,0,1-3.545,3.223c-1.182-1.5-3.437-4.082-5.586-6.338Zm17.939-23.1a54.076,54.076,0,0,0,4.834,7.949,33.3,33.3,0,0,0,4.3-7.949Z" transform="translate(-145.887 -222.522)" fill="#fff"/>
    <path id="Path_3" data-name="Path 3" d="M480.249,247.3A56.536,56.536,0,0,1,471.01,264.6a49.768,49.768,0,0,0,16.328,8.271,45.986,45.986,0,0,0-8.164,10.635,56.1,56.1,0,0,1-17.187-10.2,62.969,62.969,0,0,1-16.65,8.916A50.711,50.711,0,0,0,439,271.686v7.842H428.042v-7.734l-5.811,1.826a91.237,91.237,0,0,0-3.1-16.865v24.384H409.77V255.788a81.932,81.932,0,0,1-4.3,17.832c-.967-.645-2.793-1.611-4.4-2.471v10.957H390.22V242.253h4.4a63.605,63.605,0,0,0-4.834-9.786l10.635-4.512a49.985,49.985,0,0,1,6.123,11.4l-6.445,2.9h7.627V226h13.438v16.231h7.519l-4.941-2.041a80.384,80.384,0,0,0,5.049-12.364l12.568,4.2c-2.9,3.76-5.371,7.412-7.412,10.2H439v3.33A44.16,44.16,0,0,0,450.106,226l12.783,2.686a56.116,56.116,0,0,1-2.471,7.1h24.814V247.28Zm-3.76,62.089c0,6.553-1.5,10.1-6.338,12.031s-10.849,2.041-18.476,2.041a54.647,54.647,0,0,0-5.049-12.783c4.3.215,10.742.215,12.246.215s2.256-.43,2.256-1.719v-9.453H442.974v28.252H427.505V299.723H411.639v23.525H396.461V286.832h31.055v-5.264h15.469v5.264H476.5ZM409.77,254.928v-3.867h-8.7v12.783c.752-3.33,1.182-6.982,1.611-10.42Zm14.942-1.826a98.737,98.737,0,0,1,3.33,13.642V251.061h-8.916v3.76ZM439,270.4a50.422,50.422,0,0,0,14.287-6.875,72.845,72.845,0,0,1-5.156-8.379,33.132,33.132,0,0,1-3.545,3.223c-1.182-1.5-3.437-4.082-5.586-6.338Zm17.939-23.1a54.081,54.081,0,0,0,4.834,7.949,33.3,33.3,0,0,0,4.3-7.949Z" transform="translate(-124.131 -222.522)" fill="#fff"/>
    <g id="Group_1" data-name="Group 1" transform="translate(-197.5 -135.522)">
      <path id="Exclusion_1" data-name="Exclusion 1" d="M75-211a64.592,64.592,0,0,1-25.3-5.108A65.005,65.005,0,0,1,38.658-222.1a65.467,65.467,0,0,1-9.62-7.937,65.465,65.465,0,0,1-7.937-9.62A65.005,65.005,0,0,1,15.108-250.7,64.6,64.6,0,0,1,10-276a64.592,64.592,0,0,1,5.108-25.3A65,65,0,0,1,21.1-312.342a65.466,65.466,0,0,1,7.937-9.62,65.466,65.466,0,0,1,9.62-7.937A65,65,0,0,1,49.7-335.892,64.593,64.593,0,0,1,75-341a64.6,64.6,0,0,1,25.3,5.108,65,65,0,0,1,11.041,5.993,65.467,65.467,0,0,1,9.62,7.937,65.467,65.467,0,0,1,7.937,9.62,65.005,65.005,0,0,1,5.993,11.041A64.592,64.592,0,0,1,140-276a64.6,64.6,0,0,1-5.108,25.3,65.006,65.006,0,0,1-5.993,11.041,65.463,65.463,0,0,1-7.937,9.62,65.467,65.467,0,0,1-9.62,7.937,65.006,65.006,0,0,1-11.041,5.993A64.6,64.6,0,0,1,75-211ZM41.5-284.116h0v16.573a36.6,36.6,0,0,0,2.894,14.336A36.708,36.708,0,0,0,52.287-241.5a36.709,36.709,0,0,0,11.707,7.893,36.6,36.6,0,0,0,14.336,2.894,36.6,36.6,0,0,0,14.336-2.894,36.709,36.709,0,0,0,11.707-7.893,36.708,36.708,0,0,0,7.893-11.707,36.6,36.6,0,0,0,2.894-14.336,36.6,36.6,0,0,0-2.894-14.336,36.708,36.708,0,0,0-7.893-11.707,36.709,36.709,0,0,0-11.707-7.893,36.6,36.6,0,0,0-14.336-2.894v20.257a16.466,16.466,0,0,1,11.719,4.854A16.465,16.465,0,0,1,94.9-267.542a16.465,16.465,0,0,1-4.854,11.719,16.465,16.465,0,0,1-11.719,4.854,16.465,16.465,0,0,1-11.719-4.854,16.465,16.465,0,0,1-4.854-11.719v-16.573Zm0-32.282h0v22.154H61.756V-316.4Z" transform="translate(158 465)" fill="#fff"/>
    </g>
  </g>
</svg>
