<svg xmlns="http://www.w3.org/2000/svg" width="27.151" height="34.296" viewBox="0 0 27.151 34.296">
  <g id="up-arrow" transform="translate(-53.334)">
    <path id="Path_1" data-name="Path 1" d="M67.407.212a.715.715,0,0,0-1.01,0h0L53.534,13.073a.714.714,0,0,0,1.01,1.01L66.187,2.442V33.584a.715.715,0,1,0,1.429,0V2.442L79.256,14.082a.715.715,0,0,0,1.028-.993l-.018-.018Z" transform="translate(0 -0.002)" fill="#949eae"/>
    <path id="Path_2" data-name="Path 2" d="M79.782,14.3a.714.714,0,0,1-.506-.209L66.921,1.738,54.566,14.094a.714.714,0,0,1-1.01-1.01L66.417.223a.715.715,0,0,1,1.01,0L80.288,13.084a.714.714,0,0,1-.506,1.219Z" transform="translate(-0.02 -0.013)" fill="#949eae"/>
    <path id="Path_3" data-name="Path 3" d="M245.928,34.3a.715.715,0,0,1-.715-.715V.715a.715.715,0,1,1,1.429,0V33.582A.715.715,0,0,1,245.928,34.3Z" transform="translate(-179.026)" fill="#949eae"/>
  </g>
</svg>
